<svg width="110" height="50" viewBox="0 0 110 50" fill="none" xmlns="http://www.w3.org/2000/svg">
<path d="M0.708661 13.2021C0.708661 28.084 19.5276 25.3806 19.5276 35.9055C19.5276 40.3937 16.273 43.2546 11.3648 43.2546C7.55906 43.2546 3.54331 41.4961 0 38.294V46.4567C2.44095 48.5564 7.00787 50 11.4961 50C20.6824 50 27.1391 43.8845 27.1391 34.9869C27.1391 19.895 8.32021 21.9423 8.32021 12.7559C8.32021 9.08136 11.0499 6.77165 15.3281 6.77165C18.6614 6.77165 22.4672 8.26772 25.1181 10.7087V2.83465C22.6509 0.813649 18.7139 0 15.2493 0C6.4042 0 0.708661 5.09186 0.708661 13.2021Z" fill="#FFF"/>
<path d="M32.4932 5.17178C32.4932 7.8227 34.4092 9.65997 37.0601 9.65997C39.711 9.65997 41.5483 7.8227 41.5483 5.17178C41.5483 2.44212 39.711 0.683594 37.0601 0.683594C34.4092 0.683594 32.4932 2.44212 32.4932 5.17178ZM33.2543 14.6206V48.9513H40.7871V14.6206H33.2543Z" fill="#FFF"/>
<path d="M84.6986 31.6786C84.6986 21.075 77.4283 13.5946 67.5595 13.5946C62.8089 13.5946 58.5831 15.3532 56.011 18.0041H55.8797V1.02246H48.3994V48.949H55.3285L55.5385 45.012H55.7485C58.1369 48.0041 62.5464 49.9726 67.5858 49.9726C77.4808 49.9726 84.6986 42.361 84.6986 31.6786ZM77.7432 31.6786C77.7432 38.6865 72.9926 43.6996 66.4572 43.6996C60.0005 43.6996 55.2498 38.6603 55.2498 31.6786C55.2498 24.802 60.0005 19.8414 66.4572 19.8414C72.9926 19.8414 77.7432 24.8282 77.7432 31.6786Z" fill="#FFF"/>
<path d="M88.556 23.7269C88.556 34.5931 102.834 32.7558 102.834 39.5012C102.834 42.2309 100.525 43.9894 96.9287 43.9894C93.8579 43.9894 90.472 42.7558 88.4248 40.9185V47.7164C90.2621 49.0025 93.8054 49.9474 97.1912 49.9474C104.54 49.9474 109.632 45.3805 109.632 38.7401C109.632 28.0052 95.3539 28.95 95.3539 23.2282C95.3539 20.9185 97.2437 19.5537 100.446 19.5537C103.175 19.5537 106.351 20.6298 108.267 22.2046V15.6429C106.22 14.4094 103.228 13.5957 100.052 13.5957C92.9917 13.5957 88.556 17.5327 88.556 23.7269Z" fill="#FFF"/>
</svg>
